<svg id="圖層_1" data-name="圖層 1" xmlns="http://www.w3.org/2000/svg" viewBox="0 0 78.07 79.39"><path d="M92.57,36.5a40.74,40.74,0,0,1,8.11,14.18c4.23,13.35,2.08,25.51-7,36.29-3.32,4-8.12,3.44-10.7-1.09A118,118,0,0,0,69.73,67,115,115,0,0,0,39.26,41.93,8.16,8.16,0,0,1,35.38,38a5.4,5.4,0,0,1,1.37-6.39,35.57,35.57,0,0,1,26.8-9.76,40.39,40.39,0,0,1,24.31,9.94c.37.31.73.63,1.28,1.11.45-1.46.88-2.78,1.25-4.12.24-.88.38-1.8.56-2.71a2.93,2.93,0,0,1,4.31-2.25,8.16,8.16,0,0,1,2.31,1.88,3,3,0,0,1,.38,3,15.12,15.12,0,0,1-3.79,6.41A20.33,20.33,0,0,1,92.57,36.5Z" transform="translate(-24.7 -21.82)"/><path d="M36.52,44.21A113.58,113.58,0,0,1,81.3,89.63c-.07.07-.25.24-.45.4a52.6,52.6,0,0,1-22.78,10.53,32.72,32.72,0,0,1-16.66-.93A15.79,15.79,0,0,0,36,98.92a8.61,8.61,0,0,1-8.86-7.18A8,8,0,0,1,27,89.85a15.75,15.75,0,0,0-.79-5.62C24,77.49,24.37,70.74,26.2,64A54.28,54.28,0,0,1,36.31,44.49C36.37,44.43,36.41,44.35,36.52,44.21Z" transform="translate(-24.7 -21.82)"/></svg>