<svg id="圖層_1" data-name="圖層 1" xmlns="http://www.w3.org/2000/svg" viewBox="0 0 124.27 124.09"><path d="M68.6,72.07A33.55,33.55,0,1,1,1.51,71.3a33.28,33.28,0,0,1,33.93-33A33.23,33.23,0,0,1,68.6,72.07ZM25.35,59.82l-5.67-2.16L18.46,63.4l-4.09,3.07L18.47,70l1,5.5,4.74-1.46,7.93,1.84-1.66-5.08L35,66.32l-3.76-2.58L29.1,55.3Z" transform="translate(-1.5 -2.08)"/><path d="M92,58.55a34.48,34.48,0,0,1,33.21,27.8,33.69,33.69,0,0,1-62,23.41c-2.07-3.39-2.34-5.56.93-8.7C73.31,92.18,77.6,81,76.1,68.22c-.53-4.52,1-6.38,4.7-7.32S88.25,59.32,92,58.55Zm1.74,38-4.31,4.11,4.14,2.88q.66,2.94,1.3,5.85l5.58-2.21,3.81,4.52c.91-3.55,1.5-5.84,2.07-8.08l3.73-3.28L106,97l-.81-5.6L100,93l-5.43-1.53Z" transform="translate(-1.5 -2.08)"/><path d="M73.32,55.54C65.81,40.46,54.14,32.28,38,30.31a6.13,6.13,0,0,1-4.17-3.75c-1-4.27-1.1-8.72-1.64-13.83,16.18-1.23,29,4.17,40.16,15.3,13-18.09,30.32-26.82,52.35-25.88,3.67,15.36-6.53,40.43-19.82,48.87a6.81,6.81,0,0,1-4.48.93C91.12,50.13,82.32,51.55,73.32,55.54Z" transform="translate(-1.5 -2.08)"/></svg>